<?xml version="1.0" standalone="no"?>
<!DOCTYPE svg PUBLIC "-//W3C//DTD SVG 20010904//EN"
 "http://www.w3.org/TR/2001/REC-SVG-20010904/DTD/svg10.dtd">
<svg version="1.0" xmlns="http://www.w3.org/2000/svg"
 width="709.000000pt" height="709.000000pt" viewBox="0 0 709.000000 709.000000"
 preserveAspectRatio="xMidYMid meet">
<metadata>
Created by potrace 1.14, written by Peter Selinger 2001-2017
</metadata>
<g transform="translate(0.000000,709.000000) scale(0.100000,-0.100000)"
fill="#000000" stroke="none">
<path d="M4231 5855 c-84 -24 -150 -64 -221 -135 -101 -100 -166 -245 -185
-412 l-6 -58 -110 0 -109 0 0 -145 0 -145 110 0 110 0 0 -615 0 -615 180 0
180 0 0 615 0 615 155 0 155 0 0 145 0 145 -161 0 -162 0 5 68 c9 126 89 235
192 263 32 9 58 7 121 -6 44 -9 86 -17 94 -18 14 -2 118 249 108 260 -3 3 -37
14 -74 25 -93 27 -307 34 -382 13z"/>
<path d="M1065 5821 c-70 -31 -125 -113 -125 -186 0 -71 62 -164 127 -192 45
-18 121 -16 168 6 79 36 121 112 113 207 -12 138 -157 223 -283 165z"/>
<path d="M2535 5274 c-11 -2 -45 -9 -75 -15 -69 -14 -159 -59 -209 -104 -21
-19 -41 -35 -45 -35 -4 0 -20 29 -36 65 l-29 65 -126 0 -125 0 0 -760 0 -760
175 0 175 0 0 554 0 554 43 37 c23 20 71 51 107 68 61 30 72 32 170 32 95 0
110 -3 157 -27 55 -29 81 -60 116 -135 22 -47 22 -58 27 -563 l5 -515 175 0
175 0 0 530 c0 584 0 583 -65 723 -55 119 -184 226 -320 267 -53 16 -254 29
-295 19z"/>
<path d="M5455 5270 c-191 -31 -354 -138 -466 -309 -96 -145 -143 -371 -120
-573 16 -140 35 -208 89 -318 88 -181 249 -305 446 -346 59 -12 115 -15 225
-12 127 4 157 8 226 32 244 84 398 272 450 551 23 121 16 365 -14 475 -66 245
-229 414 -461 480 -87 24 -280 34 -375 20z m286 -307 c97 -43 163 -133 194
-265 19 -81 19 -301 1 -389 -28 -131 -103 -237 -204 -286 -48 -23 -68 -27
-141 -27 -138 0 -231 52 -289 162 -47 88 -64 176 -65 327 0 203 37 320 132
415 68 68 132 91 241 87 58 -2 99 -10 131 -24z"/>
<path d="M772 5108 l3 -143 98 -3 97 -3 0 -614 0 -615 175 0 175 0 0 760 0
760 -275 0 -276 0 3 -142z"/>
<path d="M4406 3435 c-118 -30 -233 -113 -304 -218 -62 -93 -111 -244 -112
-344 l0 -43 -110 0 -110 0 0 -145 0 -145 110 0 110 0 2 -612 3 -613 170 0 170
0 3 613 2 612 155 0 155 0 0 145 0 145 -160 0 -160 0 0 50 c0 100 58 210 134
255 61 36 116 40 206 17 41 -11 78 -17 81 -14 13 14 101 253 95 259 -3 3 -40
14 -83 25 -105 26 -280 32 -357 13z"/>
<path d="M1465 2850 c-319 -37 -565 -232 -653 -521 -28 -92 -45 -247 -37 -343
22 -274 124 -463 314 -585 138 -88 265 -116 500 -108 188 6 245 18 366 76 128
62 123 46 54 196 -33 71 -62 131 -65 134 -2 2 -17 -5 -32 -16 -87 -64 -205
-103 -312 -103 -320 0 -473 174 -458 519 11 232 113 389 290 442 59 18 86 21
176 16 121 -6 184 -24 254 -73 l48 -34 56 98 c31 53 65 111 76 129 l19 32 -43
29 c-141 95 -340 136 -553 112z"/>
<path d="M2724 2850 c-160 -18 -294 -60 -294 -93 0 -16 47 -194 65 -244 3 -9
13 -9 41 3 101 42 336 58 444 29 108 -29 175 -101 187 -204 l6 -49 -39 9 c-72
16 -259 10 -367 -12 -125 -25 -216 -62 -301 -123 -77 -55 -115 -102 -159 -193
-32 -67 -32 -70 -32 -213 0 -176 16 -228 100 -318 64 -70 127 -106 231 -132
200 -51 448 -3 559 108 l39 40 26 -42 c39 -60 103 -114 145 -122 57 -10 160 1
196 22 18 11 41 31 51 45 l20 26 -35 46 c-71 94 -87 194 -87 572 0 273 -7 350
-41 477 -53 196 -179 308 -399 353 -85 18 -266 26 -356 15z m445 -824 c15 -10
5 -206 -14 -273 -29 -98 -111 -164 -229 -183 -139 -22 -248 17 -293 105 -10
18 -16 56 -16 97 0 157 104 246 311 266 71 7 222 -1 241 -12z"/>
<path d="M5532 2849 c-175 -22 -318 -98 -446 -237 -95 -103 -152 -217 -182
-362 -21 -105 -15 -362 11 -455 52 -188 176 -345 335 -423 138 -68 187 -77
405 -77 163 0 203 4 279 23 88 22 188 65 234 101 l24 18 -67 131 c-43 84 -71
129 -79 125 -6 -4 -28 -19 -49 -34 -21 -15 -68 -38 -105 -51 -57 -20 -87 -23
-202 -23 -126 0 -139 2 -205 30 -118 49 -199 148 -226 276 -6 27 -8 56 -5 64
5 13 81 15 545 15 l539 0 11 50 c16 75 14 256 -4 325 -30 117 -87 218 -172
303 -120 121 -243 180 -423 202 -94 11 -127 11 -218 -1z m248 -305 c109 -32
175 -100 211 -214 34 -111 73 -100 -352 -100 l-372 0 6 34 c8 49 63 155 100
194 40 42 87 71 140 88 60 18 202 17 267 -2z"/>
</g>
</svg>
